<svg id="Jesus" enable-background="new 0 0 300 300" height="512" viewBox="0 0 300 300" width="512" xmlns="http://www.w3.org/2000/svg"><g><circle cx="176.735" cy="148" fill="#e5efef" r="86"/><g><path d="m90.735 126h120v104h-120z" fill="#bf7e68"/><path d="m210.735 234h-120c-2.211 0-4-1.791-4-4v-104c0-2.209 1.789-4 4-4h120c2.211 0 4 1.791 4 4v104c0 2.209-1.789 4-4 4zm-116-8h112v-96h-112z" fill="#4c241d"/></g><path d="m48.735 122c-7.719 0-14-6.281-14-14s6.281-14 14-14 14 6.281 14 14-6.281 14-14 14zm0-20c-3.309 0-6 2.691-6 6s2.691 6 6 6 6-2.691 6-6-2.691-6-6-6z" fill="#4c241d"/><circle cx="260.735" cy="88" fill="#4c241d" r="4.529"/><circle cx="76.735" cy="152" fill="#4c241d" r="4.529"/><path d="m235.388 67.348c-1.023 0-2.047-.391-2.828-1.172-1.562-1.562-1.562-4.094 0-5.656l14.695-14.695c1.562-1.562 4.094-1.562 5.656 0s1.562 4.094 0 5.656l-14.695 14.695c-.782.781-1.805 1.172-2.828 1.172z" fill="#4c241d"/><path d="m250.083 67.348c-1.023 0-2.047-.391-2.828-1.172l-14.696-14.696c-1.562-1.562-1.562-4.094 0-5.656s4.094-1.562 5.656 0l14.695 14.695c1.562 1.562 1.562 4.094 0 5.656-.78.782-1.804 1.173-2.827 1.173z" fill="#4c241d"/><g><path d="m234.735 266v-24.902c0-14.82-9.957-28.25-25.405-34.269l-9.01-3.51-93.706 62.681z" fill="#9dc1e4"/><path d="m234.735 270h-128.121c-1.762 0-3.316-1.152-3.828-2.838s.141-3.508 1.605-4.486l93.707-62.682c1.09-.727 2.465-.875 3.676-.402l9.008 3.51c16.98 6.615 27.953 21.531 27.953 37.996v24.902c0 2.209-1.789 4-4 4zm-114.945-8h110.945v-20.902c0-13.143-8.973-25.133-22.859-30.543l-7.062-2.752z" fill="#4c241d"/></g><g><path d="m174.735 193.351v-11.351h-48v11.351l-34.595 13.479c-15.449 6.019-25.405 19.449-25.405 34.269v24.901h39.879l93.706-62.681z" fill="#fff"/><path d="m106.614 270h-39.879c-2.211 0-4-1.791-4-4v-24.902c0-16.465 10.973-31.381 27.953-37.996l32.047-12.484v-8.618c0-2.209 1.789-4 4-4h48c2.211 0 4 1.791 4 4v8.617l23.039 8.975c1.387.541 2.359 1.809 2.523 3.291.16 1.482-.512 2.932-1.754 3.76l-93.707 62.682c-.655.441-1.429.675-2.222.675zm-35.879-8h34.664l86.32-57.74-18.438-7.182c-1.535-.598-2.547-2.078-2.547-3.727v-7.351h-40v7.352c0 1.648-1.012 3.129-2.547 3.727l-34.594 13.477c-13.887 5.41-22.859 17.4-22.859 30.543v20.901z" fill="#4c241d"/></g><path d="m198.735 270c-2.211 0-4-1.791-4-4v-16c0-2.209 1.789-4 4-4s4 1.791 4 4v16c0 2.209-1.789 4-4 4z" fill="#4c241d"/><g><path d="m167.402 194h-33.334c-23.932 0-43.333-19.401-43.333-43.333v-84.491c0-17.77 14.406-32.176 32.176-32.176h55.648c17.77 0 32.176 14.406 32.176 32.176v84.491c0 23.932-19.401 43.333-43.333 43.333z" fill="#bf7e68"/><path d="m167.403 198h-33.336c-26.098 0-47.332-21.234-47.332-47.334v-84.49c0-19.947 16.227-36.176 36.176-36.176h55.648c19.949 0 36.176 16.229 36.176 36.176v84.49c0 26.1-21.234 47.334-47.332 47.334zm-44.492-160c-15.535 0-28.176 12.639-28.176 28.176v84.49c0 21.689 17.645 39.334 39.332 39.334h33.336c21.688 0 39.332-17.645 39.332-39.334v-84.49c0-15.537-12.641-28.176-28.176-28.176z" fill="#4c241d"/></g><g><path d="m194.372 86c-24.1 0-43.636-5.373-43.636-12 0 6.627-19.537 12-43.636 12-1.473 0-2.928-.021-4.364-.061v35.425c0 9.187 8.125 16.635 18.147 16.635h7.453c0-4.418 2.865-8 6.4-8h32c3.535 0 6.4 3.582 6.4 8h7.453c10.023 0 18.147-7.448 18.147-16.635v-35.425c-1.436.04-2.891.061-4.364.061z" fill="#ffded5"/><path d="m180.587 142h-7.453c-2.211 0-4-1.791-4-4 0-2.289-1.266-4-2.398-4h-32c-1.133 0-2.398 1.711-2.398 4 0 2.209-1.789 4-4 4h-7.453c-12.211 0-22.148-9.256-22.148-20.635v-35.426c0-1.08.438-2.113 1.211-2.867.77-.752 1.812-1.188 2.898-1.131 1.402.037 2.816.059 4.254.059 23.84 0 38.391-5.248 39.637-8.107.008-.182.023-.361.051-.537.238-1.969 1.914-3.436 3.961-3.436 2.207 0 3.988 1.871 3.988 4.08 1.07 2.688 15.652 8 39.637 8 1.438 0 2.852-.021 4.254-.059 1.117-.008 2.129.381 2.898 1.131.773.754 1.211 1.787 1.211 2.867v35.426c-.002 11.379-9.939 20.635-22.15 20.635zm-4.047-8h4.047c7.801 0 14.148-5.668 14.148-12.635v-31.365c-.121 0-.242 0-.363 0-13.746 0-34.891-2.035-43.637-8.865-8.746 6.83-29.89 8.865-43.636 8.865-.121 0-.242 0-.363 0v31.365c0 6.967 6.348 12.635 14.148 12.635h4.047c1.43-4.656 5.285-8 9.805-8h32c4.519 0 8.374 3.344 9.804 8z" fill="#4c241d"/></g><g fill="#4c241d"><circle cx="124.735" cy="112" r="4.529"/><circle cx="176.735" cy="112" r="4.529"/><path d="m150.735 156.152c-4.062 0-8.125-.645-11.992-1.934l-1.27-.424c-2.098-.697-3.23-2.963-2.535-5.059.699-2.094 2.965-3.234 5.059-2.531l1.273.424c6.113 2.035 12.828 2.035 18.926 0l1.277-.424c2.094-.703 4.359.438 5.059 2.531.695 2.096-.438 4.361-2.535 5.059l-1.273.424c-3.864 1.29-7.926 1.934-11.989 1.934z"/><path d="m150.735 78c-2.211 0-4-1.791-4-4v-16c0-2.209 1.789-4 4-4s4 1.791 4 4v16c0 2.209-1.789 4-4 4z"/><path d="m154.735 170h-8c-2.211 0-4-1.791-4-4s1.789-4 4-4h8c2.211 0 4 1.791 4 4s-1.789 4-4 4z"/><path d="m102.735 270c-2.211 0-4-1.791-4-4v-16c0-2.209 1.789-4 4-4s4 1.791 4 4v16c0 2.209-1.789 4-4 4z"/></g></g></svg>